<svg width="480" height="221" viewBox="0 0 480 221" fill="none" xmlns="http://www.w3.org/2000/svg">
<path fill-rule="evenodd" clip-rule="evenodd" d="M110.724 132.943C103.895 132.573 97.1767 132.516 90.6038 132.76C92.1038 128.661 93.4944 124.448 94.7653 120.13C111.458 63.4167 100.994 10.3802 71.3903 1.66671C41.7861 -7.04683 4.25484 31.8594 -12.4431 88.573C-22.5212 122.813 -22.6983 155.714 -14.7399 178.328C-19.3545 185.583 -22.0629 193.464 -22.5212 201.776C-24.8077 243.688 31.1298 280.823 102.427 284.719C169.781 288.401 226.744 261.099 234.77 222.74C235.01 224.656 235.354 226.568 235.812 228.469C246.963 274.792 319.885 296.969 398.687 278C477.489 259.031 532.333 206.099 521.182 159.776C510.031 113.453 437.109 91.2813 358.307 110.25C291.724 126.276 242.244 166.552 235.229 206.599C229.531 168.62 176.703 136.552 110.724 132.943ZM428.656 51.0677C430.494 72.1042 439.885 88.474 449.635 87.6198C459.385 86.7709 465.802 69.0261 463.968 47.9844C462.13 26.9427 452.739 10.5782 442.989 11.4271C433.239 12.2813 426.823 30.0261 428.656 51.0677ZM156.401 116.839C150.448 109.068 159.213 92.3594 175.979 79.5105C192.739 66.6667 211.156 62.5521 217.109 70.3177C223.062 78.0886 214.302 94.7969 197.536 107.646C180.77 120.49 162.354 124.604 156.401 116.839ZM404.88 60.6459C417.369 64.375 426.093 72.0938 424.364 77.8802C422.635 83.6719 411.109 85.3386 398.614 81.6042C386.125 77.875 377.401 70.1563 379.13 64.3698C380.859 58.5782 392.39 56.9115 404.88 60.6459Z" fill="#0F8578" fill-opacity="0.2"/>
<mask id="mask0_2_947" style="mask-type:luminance" maskUnits="userSpaceOnUse" x="218" y="45" width="145" height="176">
<path d="M218.666 45.6667H362.666V220.333H218.666V45.6667Z" fill="white"/>
</mask>
<g mask="url(#mask0_2_947)">
<mask id="mask1_2_947" style="mask-type:luminance" maskUnits="userSpaceOnUse" x="219" y="46" width="143" height="204">
<path d="M248.785 246.453C217.259 232.932 210.598 177.927 233.9 123.599C257.202 69.2656 301.65 36.1875 333.176 49.7084C364.702 63.2292 371.364 118.234 348.062 172.563C324.754 226.896 280.312 259.974 248.785 246.453Z" fill="white"/>
</mask>
<g mask="url(#mask1_2_947)">
<path d="M249.837 244C235.311 237.771 226.067 221.771 223.426 200.005C220.801 178.318 224.848 151.458 236.348 124.646L231.447 122.547C219.645 150.062 215.374 177.87 218.134 200.646C220.884 223.349 230.728 241.609 247.733 248.906L249.837 244ZM236.348 124.646C247.848 97.8385 264.52 76.3906 282.046 63.3489C299.634 50.2552 317.603 45.927 332.124 52.1562L334.228 47.2552C317.223 39.9635 297.207 45.4166 278.863 59.0677C260.457 72.7656 243.254 95.026 231.447 122.547L236.348 124.646ZM332.124 52.1562C346.645 58.3854 355.895 74.3854 358.53 96.1562C361.16 117.844 357.108 144.703 345.608 171.51L350.509 173.615C362.317 146.099 366.587 118.292 363.827 95.5104C361.077 72.8125 351.228 54.552 334.228 47.2552L332.124 52.1562ZM345.608 171.51C334.108 198.323 317.436 219.771 299.91 232.812C282.322 245.906 264.358 250.229 249.837 244L247.733 248.906C264.733 256.198 284.754 250.745 303.098 237.094C321.504 223.396 338.707 201.135 350.509 173.615L345.608 171.51Z" fill="#32C1B1" fill-opacity="0.15"/>
</g>
</g>
</svg>
