<svg width="480" height="229" viewBox="0 0 480 229" fill="none" xmlns="http://www.w3.org/2000/svg">
<path fill-rule="evenodd" clip-rule="evenodd" d="M94.6978 19.1771C80.4166 34.7396 74.6874 52.7187 81.8958 59.3385C89.1093 65.9531 106.531 58.7031 120.812 43.1458C135.088 27.5833 140.823 9.60414 133.609 2.98435C126.396 -3.63024 108.974 3.61976 94.6978 19.1771ZM234.349 278.974C262.437 331.37 317.724 367.005 381.333 367.005C473.38 367.005 548 292.385 548 200.339C548 108.292 473.38 33.6718 381.333 33.6718C313.031 33.6718 254.328 74.7552 228.583 133.562C205.547 103.625 169.359 84.3385 128.667 84.3385C98.4218 84.3385 70.6718 94.9896 48.9531 112.755C12.3489 55.5729 -51.7344 17.6718 -124.667 17.6718C-238.438 17.6718 -330.667 109.901 -330.667 223.672C-330.667 337.443 -238.438 429.672 -124.667 429.672C-44.0001 429.672 25.8385 383.307 59.651 315.771C79.4739 328.776 103.187 336.339 128.667 336.339C172.937 336.339 211.875 313.505 234.349 278.974ZM212.937 89.6823C217.625 85.8698 214.755 74.5781 206.531 64.4635C198.307 54.3489 187.844 49.2396 183.156 53.0521C178.469 56.8646 181.333 68.151 189.557 78.2656C197.781 88.3802 208.25 93.4896 212.937 89.6823ZM229.354 82.401C223.667 78.5573 225.781 65.4948 234.083 53.2239C242.38 40.9531 253.714 34.1198 259.401 37.9687C265.089 41.8125 262.974 54.875 254.672 67.1458C246.375 79.4166 235.042 86.25 229.354 82.401ZM44.3333 14.651C56.8281 18.3854 65.552 26.1041 63.8228 31.8906C62.0937 37.6771 50.5624 39.3437 38.0728 35.6146C25.5833 31.8802 16.8593 24.1666 18.5885 18.375C20.3176 12.5885 31.8437 10.9218 44.3333 14.651Z" fill="#0F8578" fill-opacity="0.2"/>
<mask id="mask0_2_2326" style="mask-type:luminance" maskUnits="userSpaceOnUse" x="356" y="67" width="124" height="162">
<path d="M356 67H480V228.333H356V67Z" fill="white"/>
</mask>
<g mask="url(#mask0_2_2326)">
<mask id="mask1_2_2326" style="mask-type:luminance" maskUnits="userSpaceOnUse" x="356" y="67" width="147" height="191">
<path d="M377.401 71.7032C349.344 87.9011 349.953 141.484 378.766 191.391C407.578 241.292 453.677 268.62 481.734 252.417C509.792 236.219 509.182 182.635 480.37 132.729C451.557 82.8282 405.458 55.5053 377.401 71.7032Z" fill="white"/>
</mask>
<g mask="url(#mask1_2_2326)">
<path d="M378.734 74.0104C365.911 81.4166 359.182 97.6562 359.422 118.875C359.667 140 366.854 165.427 381.078 190.057L376.458 192.724C361.865 167.448 354.344 141.135 354.088 118.937C353.838 96.8385 360.833 78.1875 376.068 69.3906L378.734 74.0104ZM381.078 190.057C395.297 214.687 413.724 233.63 431.896 244.401C450.151 255.219 467.578 257.51 480.401 250.109L483.068 254.729C467.833 263.526 448.187 260.255 429.177 248.984C410.078 237.667 391.047 217.995 376.458 192.724L381.078 190.057ZM480.401 250.109C493.224 242.708 499.953 226.464 499.714 205.245C499.469 184.12 492.281 158.693 478.057 134.062L482.677 131.396C497.271 156.672 504.792 182.984 505.047 205.182C505.297 227.281 498.302 245.932 483.068 254.729L480.401 250.109ZM478.057 134.062C463.839 109.432 445.411 90.4896 427.24 79.7187C408.984 68.901 391.557 66.6093 378.734 74.0104L376.068 69.3906C391.302 60.5989 410.948 63.8646 429.958 75.1354C449.057 86.4531 468.089 106.125 482.677 131.396L478.057 134.062Z" fill="#32C1B1" fill-opacity="0.15"/>
</g>
</g>
</svg>
