<svg width="480" height="197" viewBox="0 0 480 197" fill="none" xmlns="http://www.w3.org/2000/svg">
<path fill-rule="evenodd" clip-rule="evenodd" d="M319.558 18.3125C319.365 28.0261 314.313 35.7969 308.271 35.6771C302.229 35.5573 297.49 27.5886 297.683 17.8802C297.881 8.16669 302.933 0.390646 308.974 0.515646C315.011 0.635437 319.75 8.60419 319.558 18.3125ZM-185.333 210.885C-185.333 97.1146 -93.1038 4.88544 20.667 4.88544C86.4847 4.88544 145.089 35.75 182.802 83.7969C203.131 69.9427 228.464 62.4896 255.427 64.2656C273.828 65.474 290.917 70.849 305.74 79.3542C323.058 37.3125 367.396 8.97919 417.302 12.2656C479.177 16.3386 526.188 67.4584 522.302 126.448C518.417 185.438 465.115 229.953 403.24 225.88C384.839 224.672 367.75 219.297 352.927 210.792C335.61 252.833 291.271 281.167 241.365 277.88C232.907 277.323 224.729 275.891 216.922 273.677C190.37 356.74 112.542 416.885 20.667 416.885C-93.1038 416.885 -185.333 324.656 -185.333 210.885ZM289.297 37.4584C293.386 30.375 286.979 19.0156 274.99 12.0938C262.995 5.16669 249.953 5.2969 245.865 12.3854C241.771 19.474 248.177 30.8281 260.172 37.7552C272.167 44.6771 285.203 44.5469 289.297 37.4584Z" fill="#0F8578" fill-opacity="0.2"/>
</svg>
