<svg width="128" height="160" viewBox="0 0 128 160" fill="none" xmlns="http://www.w3.org/2000/svg">
<path d="M14.6146 10.599C13.3021 9.50521 11.3542 9.6823 10.2604 10.9948C9.16665 12.3073 9.34373 14.2552 10.6562 15.349L14.6146 10.599ZM20.7969 15.75L14.6146 10.599L10.6562 15.349L16.8385 20.5L20.7969 15.75ZM117.016 111.974C118.109 113.281 117.932 115.234 116.62 116.323C115.312 117.417 113.359 117.24 112.271 115.927L117.016 111.974ZM111.865 105.792L117.016 111.974L112.271 115.927L107.115 109.745L111.865 105.792Z" fill="#D88E00"/>
<path d="M96.2655 130.812C96.2655 146.932 83.1978 160 67.0728 160C50.953 160 37.8853 146.932 37.8853 130.812C37.8853 114.687 50.953 101.62 67.0728 101.62C83.1978 101.62 96.2655 114.687 96.2655 130.812Z" fill="#FFAD0E"/>
<path d="M96.2655 130.812C96.2655 146.932 83.1978 160 67.0728 160C50.953 160 37.8853 146.932 37.8853 130.812C37.8853 114.687 50.953 101.62 67.0728 101.62C83.1978 101.62 96.2655 114.687 96.2655 130.812Z" fill="#D88E00"/>
<path d="M96.2655 124.323C96.2655 140.448 83.1978 153.516 67.0728 153.516C50.953 153.516 37.8853 140.448 37.8853 124.323C37.8853 108.203 50.953 95.1354 67.0728 95.1354C83.1978 95.1354 96.2655 108.203 96.2655 124.323Z" fill="#FFAD0E"/>
<path d="M96.2655 124.323C96.2655 140.448 83.1978 153.516 67.0728 153.516C50.953 153.516 37.8853 140.448 37.8853 124.323C37.8853 108.203 50.953 95.1354 67.0728 95.1354C83.1978 95.1354 96.2655 108.203 96.2655 124.323Z" fill="#FFAD0E"/>
<path d="M81.1301 124.323C81.1301 132.083 74.8385 138.38 67.078 138.38C59.3124 138.38 53.0208 132.083 53.0208 124.323C53.0208 116.563 59.3124 110.271 67.078 110.271C74.8385 110.271 81.1301 116.563 81.1301 124.323Z" fill="#D88E00"/>
<path d="M66.625 122.344C32.8958 122.344 5.45312 94.901 5.45312 61.1719C5.45312 27.4427 32.8958 0 66.625 0C100.354 0 127.797 27.4427 127.797 61.1719C127.797 94.901 100.354 122.344 66.625 122.344Z" fill="#1E2F2B"/>
<path d="M127.594 66.1302C125.213 65.3854 121.193 66.5729 118.687 69.3906C115.713 72.75 111.641 71.0885 105.021 58.8906C98.6874 47.2135 104.49 42.0729 106.802 34.9375C108.771 29.0885 103.458 14.401 100.198 10.0521L100.203 10.026L100.266 10.0885C116.844 21.0365 127.792 39.8177 127.792 61.1667C127.792 62.8177 127.729 64.5312 127.609 66.1198L127.594 66.1302ZM80.8176 120.693C76.2916 121.792 71.5208 122.344 66.6249 122.344C64.4843 122.344 62.4062 122.219 60.3229 122.036C62.0364 116.776 61.2447 109.865 59.4062 107.172C54.8801 100.443 43.1354 100.323 42.7083 91.8177C42.2812 83.3177 43.4426 81.849 42.2812 76.8906C41.1197 72 11.2031 69.7708 12.7343 32.3333V32.2969C23.0104 13.0885 43.3176 0 66.6249 0C71.0885 0 75.3749 0.489585 79.5312 1.34375L79.5364 1.35938C79.8801 6.31771 75.7656 10.8073 71.3072 12.2708C54.0051 17.9427 67.8072 40.4844 56.2864 42.8542C52.4635 43.6458 45.9374 37.224 42.2656 38.1042C39.9531 38.6458 35.3072 42.6719 39.6354 47.1615C44.8385 52.5521 42.3906 54.6302 44.2916 58.9792C46.2603 63.3281 52.2499 63.8385 59.3906 63.026C66.4583 62.1458 69.7447 61.8438 74.7708 67.0781C79.802 72.3177 78.7864 79.724 85.8541 80.5365C92.9895 81.4167 100.937 84.5156 99.9218 90.5625C98.4947 99.026 82.8489 103.484 80.7968 120.698" fill="#1E886F"/>
<path d="M115.937 107.115C117.141 105.906 117.141 103.948 115.937 102.74C114.729 101.536 112.771 101.536 111.562 102.74L115.937 107.115ZM24.9999 16.1771C26.2083 14.9687 26.2083 13.0156 24.9999 11.8073C23.7916 10.5989 21.8333 10.5989 20.6301 11.8073L24.9999 16.1771ZM111.562 102.74C87.6614 126.646 48.901 126.646 24.9999 102.74L20.6301 107.115C46.9478 133.432 89.6145 133.432 115.937 107.115L111.562 102.74ZM24.9999 102.74C1.09367 78.8385 1.09367 40.0833 24.9999 16.1771L20.6301 11.8073C-5.69279 38.125 -5.69279 80.7969 20.6301 107.115L24.9999 102.74Z" fill="#FFC147"/>
</svg>
